<svg width="512" height="512" viewBox="0 0 512 512" fill="none" xmlns="http://www.w3.org/2000/svg">
<path d="M12.8258 252.937C12.8139 295.955 24.054 337.959 45.4271 374.981L10.7817 501.477L140.234 467.534C176.039 487.026 216.156 497.24 256.923 497.242H257.03C391.609 497.242 501.159 387.732 501.216 253.129C501.242 187.905 475.864 126.572 429.757 80.4286C383.657 34.2891 322.346 8.8657 257.02 8.83594C122.426 8.83594 12.8833 118.34 12.8278 252.937" fill="url(#paint0_linear_1410_617)"/>
<path d="M4.10791 252.857C4.09402 297.422 15.7371 340.928 37.8721 379.277L1.9845 510.307L136.079 475.148C173.026 495.293 214.625 505.914 256.955 505.929H257.064C396.471 505.929 509.956 392.48 510.016 253.059C510.039 185.491 483.749 121.953 435.994 74.1567C388.233 26.366 324.729 0.0277829 257.064 0C117.633 0 4.16347 113.434 4.10791 252.857ZM83.964 372.673L78.9571 364.725C57.9096 331.258 46.8004 292.584 46.8162 252.872C46.8619 136.988 141.173 42.7064 257.143 42.7064C313.304 42.7302 366.084 64.6231 405.782 104.345C445.478 144.07 467.321 196.878 467.307 253.043C467.256 368.928 372.942 463.221 257.064 463.221H256.98C219.249 463.201 182.244 453.068 149.972 433.92L142.292 429.366L62.718 450.229L83.964 372.671V372.673Z" fill="url(#paint1_linear_1410_617)"/>
<path d="M193.842 147.146C189.107 136.622 184.124 136.41 179.621 136.225C175.934 136.066 171.718 136.078 167.507 136.078C163.292 136.078 156.444 137.664 150.655 143.985C144.86 150.311 128.532 165.6 128.532 196.695C128.532 227.792 151.181 257.843 154.338 262.064C157.5 266.277 198.063 332.131 262.305 357.465C315.696 378.518 326.561 374.331 338.148 373.275C349.738 372.223 375.544 357.991 380.809 343.232C386.078 328.475 386.078 315.826 384.498 313.183C382.918 310.549 378.703 308.968 372.383 305.808C366.06 302.647 334.987 287.356 329.194 285.247C323.399 283.139 319.186 282.088 314.971 288.416C310.756 294.735 298.653 308.968 294.964 313.183C291.278 317.408 287.589 317.934 281.271 314.772C274.946 311.601 254.591 304.935 230.442 283.405C211.652 266.652 198.968 245.964 195.28 239.635C191.593 233.317 194.885 229.891 198.055 226.742C200.895 223.91 204.377 219.362 207.541 215.673C210.692 211.981 211.744 209.348 213.851 205.133C215.961 200.914 214.905 197.223 213.327 194.061C211.744 190.9 199.462 159.642 193.842 147.146Z" fill="white"/>
<defs>
<linearGradient id="paint0_linear_1410_617" x1="24532.5" y1="49273" x2="24532.5" y2="8.83594" gradientUnits="userSpaceOnUse">
<stop stop-color="#1FAF38"/>
<stop offset="1" stop-color="#60D669"/>
</linearGradient>
<linearGradient id="paint1_linear_1410_617" x1="25403.5" y1="51030.7" x2="25403.5" y2="0" gradientUnits="userSpaceOnUse">
<stop stop-color="#F9F9F9"/>
<stop offset="1" stop-color="white"/>
</linearGradient>
</defs>
</svg>
